<?xml version="1.0" encoding="UTF-8" standalone="no"?>
<svg
   viewBox="0 0 511.99999 511.99999"
   version="1.1"
   id="svg221"
   sodipodi:docname="favicon.svg"
   width="512"
   height="512"
   inkscape:version="1.2.1 (9c6d41e4, 2022-07-14)"
   xmlns:inkscape="http://www.inkscape.org/namespaces/inkscape"
   xmlns:sodipodi="http://sodipodi.sourceforge.net/DTD/sodipodi-0.dtd"
   xmlns:xlink="http://www.w3.org/1999/xlink"
   xmlns="http://www.w3.org/2000/svg"
   xmlns:svg="http://www.w3.org/2000/svg">
  <sodipodi:namedview
     id="namedview223"
     pagecolor="#ffffff"
     bordercolor="#000000"
     borderopacity="0.25"
     inkscape:showpageshadow="2"
     inkscape:pageopacity="0.0"
     inkscape:pagecheckerboard="0"
     inkscape:deskcolor="#d1d1d1"
     showgrid="false"
     inkscape:zoom="0.62183956"
     inkscape:cx="321.62637"
     inkscape:cy="376.30285"
     inkscape:window-width="1440"
     inkscape:window-height="762"
     inkscape:window-x="0"
     inkscape:window-y="25"
     inkscape:window-maximized="1"
     inkscape:current-layer="svg221" />
  <defs
     id="defs213">
    <style
       id="style199">.cls-1{fill:url(#linear-gradient);}.cls-2{fill:url(#linear-gradient-2);}</style>
    <linearGradient
       id="linear-gradient"
       x1="70"
       y1="158.89999"
       x2="76.989998"
       y2="20.33"
       gradientUnits="userSpaceOnUse">
      <stop
         offset="0"
         stop-color="#263498"
         id="stop201" />
      <stop
         offset="0.62"
         stop-color="#0069b4"
         id="stop203" />
      <stop
         offset="0.66"
         stop-color="#0a6fbd"
         id="stop205" />
      <stop
         offset="0.89"
         stop-color="#388ae5"
         id="stop207" />
      <stop
         offset="1"
         stop-color="#4994f5"
         id="stop209" />
    </linearGradient>
    <linearGradient
       id="linear-gradient-2"
       x1="56.59"
       y1="158.12"
       x2="63.619999"
       y2="18.83"
       xlink:href="#linear-gradient" />
    <linearGradient
       inkscape:collect="always"
       xlink:href="#linear-gradient"
       id="linearGradient345"
       gradientUnits="userSpaceOnUse"
       x1="70"
       y1="158.89999"
       x2="76.989998"
       y2="20.33" />
  </defs>
  <g
     id="Слой_2"
     data-name="Слой 2"
     transform="matrix(2.8630139,0,0,2.8630139,78.120946,-0.17240164)">
    <g
       id="Слой_1-2"
       data-name="Слой 1">
      <path
         class="cls-1"
         d="M 70.49,118.86 A 84.56,84.56 0 0 0 46.07,102.74 l 9.14,29.35 c 9.91,8.79 20.41,23.58 20.41,46.79 H 95.75 C 95.75,148.94 82,129.72 70.49,118.86 Z"
         id="path215"
         style="fill:url(#linearGradient345)" />
      <path
         class="cls-2"
         d="M 124.26,15.16 111.2,8.47 A 77.37,77.37 0 0 0 0,63.73 l 19.32,20 a 57.08,57.08 0 0 1 56.36,-63.6 58.24,58.24 0 0 1 11.56,1.09 l -9.18,8.2 19,50.65 -9.72,6.54 -7.43,-5.61 -27.54,3.81 -0.26,0.33 34.52,26.21 34.85,-23.46 -19.73,-52.63 z"
         id="path217"
         style="fill:url(#linear-gradient-2)" />
    </g>
  </g>
</svg>
