<svg id="Слой_1" data-name="Слой 1" xmlns="http://www.w3.org/2000/svg" xmlns:xlink="http://www.w3.org/1999/xlink" viewBox="0 0 525.41 174.25"><defs><style>.cls-1{fill:none;}.cls-2{fill:#fff;}.cls-3{clip-path:url(#clip-path);}.cls-4{clip-path:url(#clip-path-2);}.cls-5{clip-path:url(#clip-path-4);}.cls-6{clip-path:url(#clip-path-6);}.cls-7{clip-path:url(#clip-path-8);}.cls-8{clip-path:url(#clip-path-10);}</style><clipPath id="clip-path"><rect class="cls-1" width="525.41" height="174.25"/></clipPath><clipPath id="clip-path-2"><path class="cls-1" d="M25.94,88.3a27.56,27.56,0,0,0,8.13,19.55l4.53-4.52a20.88,20.88,0,0,1-6.28-15,6.64,6.64,0,0,1,.06-1.09L26,86.93c0,.44,0,.93,0,1.37"/></clipPath><clipPath id="clip-path-4"><path class="cls-1" d="M34.07,68.85l4.53,4.52a21.07,21.07,0,0,1,15-6.27,6.58,6.58,0,0,1,1.09.06L55,60.78c-.43,0-.93-.05-1.36-.05a27.63,27.63,0,0,0-19.59,8.12"/></clipPath><clipPath id="clip-path-6"><path class="cls-1" d="M53.6,109.6a8,8,0,0,1-1.09,0l-.32,6.37c.43,0,.92,0,1.36,0a27.63,27.63,0,0,0,19.59-8.12l-4.53-4.52a20.78,20.78,0,0,1-15,6.27"/></clipPath><clipPath id="clip-path-8"><path class="cls-1" d="M53.6,67.05a21.38,21.38,0,0,1,12,3.76l5.4-4A27.76,27.76,0,0,0,53.6,60.68Z"/></clipPath><clipPath id="clip-path-10"><path class="cls-1" d="M33.09,106.88A27.53,27.53,0,0,0,53.6,116V109.6a21.15,21.15,0,0,1-15.77-7Z"/></clipPath></defs><title>ЛОГО СберТройка white</title><polygon class="cls-2" points="187.3 77.23 194.83 71.68 169.62 71.68 169.62 104.97 194.83 104.97 194.83 99.41 176.82 99.41 176.82 90.91 192.21 90.91 192.21 85.35 176.82 85.35 176.82 77.23 187.3 77.23"/><g class="cls-3"><path class="cls-2" d="M149.37,99.41h-7.53V90.2h7.53c4.59,0,6.72,1.53,6.72,4.63s-2.3,4.58-6.72,4.58m1.2-14.76h-8.73V77.23h14l7.53-5.55h-28.7V105h15c8.4,0,13.26-3.81,13.26-10.46,0-6.38-4.37-9.86-12.34-9.86"/><path class="cls-2" d="M215.08,90h-6.39V77.23h6.39c4.64,0,7.15,2.3,7.15,6.38S219.72,90,215.08,90m.16-18.3h-13.7V105h7.21V95.54h6.55c8.73,0,14.18-4.57,14.18-11.93S224,71.68,215.24,71.68"/><path class="cls-2" d="M122.31,97.77a13,13,0,0,1-6.22,1.59c-6.5,0-11.19-4.63-11.19-11s4.69-11,11.19-11a10.92,10.92,0,0,1,6.54,2.07l5.19-3.81-.33-.32a17.14,17.14,0,0,0-11.62-4A18.55,18.55,0,0,0,103.1,76a16.38,16.38,0,0,0-5,12.15,17.15,17.15,0,0,0,5,12.37,18.06,18.06,0,0,0,12.71,4.9c5.19,0,9.72-1.79,12.77-5.06l-4.64-3.43Z"/><path class="cls-2" d="M75.54,71.46A29.73,29.73,0,0,1,78.87,77L53.66,95.54,43.07,88.89v-8L53.6,87.53Z"/><path class="cls-2" d="M32.32,88.35a6.64,6.64,0,0,1,.06-1.09L26,86.93c0,.44,0,.93,0,1.37a27.56,27.56,0,0,0,8.13,19.55l4.53-4.52a20.88,20.88,0,0,1-6.28-15"/></g><g class="cls-4"><rect class="cls-2" x="25.77" y="60.18" width="361.25" height="59.62"/></g><g class="cls-3"><path class="cls-2" d="M53.6,67.1a7.88,7.88,0,0,1,1.09.05L55,60.78c-.43,0-.93-.05-1.36-.05a27.63,27.63,0,0,0-19.59,8.12l4.53,4.52a21.07,21.07,0,0,1,15-6.27"/></g><g class="cls-5"><rect class="cls-2" x="25.77" y="60.18" width="361.25" height="59.62"/></g><g class="cls-3"><path class="cls-2" d="M53.6,109.6a8,8,0,0,1-1.09,0l-.32,6.37c.43,0,.92,0,1.36,0a27.63,27.63,0,0,0,19.59-8.12l-4.53-4.52a20.78,20.78,0,0,1-15,6.27"/></g><g class="cls-6"><rect class="cls-2" x="25.77" y="60.18" width="361.25" height="59.62"/></g><g class="cls-3"><path class="cls-2" d="M65.61,70.81l5.4-4A27.77,27.77,0,0,0,53.6,60.67v6.38a21.38,21.38,0,0,1,12,3.76"/></g><g class="cls-7"><rect class="cls-2" x="25.77" y="60.18" width="361.25" height="59.62"/></g><g class="cls-3"><path class="cls-2" d="M81.33,88.35a30.19,30.19,0,0,0-.44-5l-6,4.42v.54a21.08,21.08,0,0,1-7,15.74l4.31,4.75a27.59,27.59,0,0,0,9.12-20.49"/><path class="cls-2" d="M53.6,109.6a21.15,21.15,0,0,1-15.77-7l-4.74,4.31A27.53,27.53,0,0,0,53.6,116Z"/></g><g class="cls-8"><rect class="cls-2" x="25.77" y="60.18" width="361.25" height="59.62"/></g><g class="cls-3"><path class="cls-2" d="M39.36,72.61l-4.31-4.75a27.48,27.48,0,0,0-9.11,20.49h6.38a21.16,21.16,0,0,1,7-15.74"/><path class="cls-2" d="M397.94,104a2,2,0,0,0,.61-.75,4.66,4.66,0,0,0,.44-2.41,3.91,3.91,0,0,1-.88,3c0,.08-.13.13-.17.17"/><path class="cls-2" d="M397.94,104a1.94,1.94,0,0,1-.44.31,1.08,1.08,0,0,0,.44-.31"/><path class="cls-2" d="M399,74.57v0c0-.31-.09-.53-.13-.79v0a2,2,0,0,0-.27-.66,3.52,3.52,0,0,0-.39-.52l-.09-.09a1.92,1.92,0,0,0-.17-.13,1.67,1.67,0,0,0-.44-.31l-.09,0a3.06,3.06,0,0,0-1.58-.39h-.05A3.09,3.09,0,0,0,393,73.08s0,0,0,.08a4.44,4.44,0,0,0-.4,1.85v26.35a4.41,4.41,0,0,0,.4,1.85s0,0,0,.09a3.18,3.18,0,0,0,2.81,1.53h.09a3.48,3.48,0,0,0,1.58-.39.14.14,0,0,0,.09,0,3.35,3.35,0,0,0,.44-.31,1.18,1.18,0,0,1,.18-.13,4.19,4.19,0,0,0,.92-3V75.49a3.52,3.52,0,0,1-.09-.92"/><path class="cls-2" d="M385.33,61.26h1.45a2.6,2.6,0,0,1,2.59,2.59v1.23a2.6,2.6,0,0,1-2.59,2.59h-1.45a2.62,2.62,0,0,1-2.59-2.59V63.85a2.62,2.62,0,0,1,2.59-2.59"/><path class="cls-2" d="M259.83,77.35v23.12a5.43,5.43,0,0,1-.44,2.82,3.35,3.35,0,0,1-5.64,0,5.49,5.49,0,0,1-.44-2.86V77.31h-4.89a5.22,5.22,0,0,1-2.51-.35,2.69,2.69,0,0,1-1.37-2.51,2.82,2.82,0,0,1,1.37-2.51,5.07,5.07,0,0,1,2.51-.36h16.3a5.07,5.07,0,0,1,2.51.36,3,3,0,0,1,0,5,5.22,5.22,0,0,1-2.51.35h-4.89Z"/><path class="cls-2" d="M287.49,100.43V75.5a3.36,3.36,0,0,1,4-4h8.9c6.87,0,10.92,4.67,10.92,10.31s-4,10.3-10.92,10.3H294v8.24a5.37,5.37,0,0,1-.44,2.82,3.34,3.34,0,0,1-5.63,0,5,5,0,0,1-.44-2.78m12.46-14c2.91,0,4.8-1.85,4.8-4.54s-1.85-4.54-4.8-4.54h-6v9.08Z"/><path class="cls-2" d="M333.76,101.41c-3.25-3.25-3.38-7-3.38-13.27s.13-10,3.38-13.26a13,13,0,0,1,17.66,0c3.25,3.25,3.38,7,3.38,13.26s-.13,10-3.38,13.27a13,13,0,0,1-17.66,0m4.7-22.49c-1.23,1.4-1.58,2.94-1.58,9.27s.35,7.82,1.58,9.22a5.64,5.64,0,0,0,8.26,0c1.23-1.4,1.58-2.94,1.58-9.22s-.35-7.87-1.58-9.27a5.38,5.38,0,0,0-4.13-1.76,5.12,5.12,0,0,0-4.13,1.76"/><path class="cls-2" d="M427,90.69v9.75a5.29,5.29,0,0,1-.44,2.81,3.18,3.18,0,0,1-2.81,1.54,3.08,3.08,0,0,1-2.81-1.54,5.29,5.29,0,0,1-.44-2.81V75.84a5.31,5.31,0,0,1,.44-2.81,3.35,3.35,0,0,1,5.62,0,5.31,5.31,0,0,1,.44,2.81V90.69Z"/><path class="cls-2" d="M429.78,87.42l8.57-13.53c1-1.54,1.49-2.15,2.68-2.33a3.23,3.23,0,0,1,3.47,2.59c.13.88-.18,1.5-1.06,2.95L435.05,90Z"/><path class="cls-2" d="M484.12,98.77l1.1,3c.57,1.49.79,2,1.36,2.42a2.72,2.72,0,0,0,1.8.61,3.25,3.25,0,0,0,2.33-1c1.14-1.23.79-2.46.17-4.13L481.4,74.44a5.68,5.68,0,0,0-1.32-2.2,3.15,3.15,0,0,0-2.33-.79,3.21,3.21,0,0,0-2.33.79,4.88,4.88,0,0,0-1.32,2.2l-9.53,25.21c-.61,1.67-1,2.9.18,4.13a3.15,3.15,0,0,0,2.33,1,2.92,2.92,0,0,0,1.8-.61,5.28,5.28,0,0,0,1.36-2.42l1.1-3,2-5.4,4.39-12,4.44,12Z"/><path class="cls-2" d="M420.51,89a3,3,0,0,1,1.5-2.64c2.68-1.62,9-3.29,13.61,1.94,1.76,2,5.63,7.68,7.43,10.36h2.28a3.08,3.08,0,1,1,0,6.15h-3.95a3.08,3.08,0,0,1-2.59-1.4c-1.63-2.46-6.15-9.23-7.78-11.07-2.41-2.73-5.71-.84-5.84-.75a3.09,3.09,0,0,1-4.22-1,2.7,2.7,0,0,1-.44-1.54"/><path class="cls-2" d="M467.16,96.49a2.9,2.9,0,0,1,2.9-2.9h16a2.9,2.9,0,0,1,0,5.8h-16a2.93,2.93,0,0,1-2.9-2.9"/><path class="cls-2" d="M380,73a3.09,3.09,0,0,0-2.81-1.54h-.09a3.06,3.06,0,0,0-1.58.4.14.14,0,0,0-.08,0,3.35,3.35,0,0,0-.44.31c-.05.05-.14.09-.18.13l-.09.09a1.52,1.52,0,0,0-.39.53,3.67,3.67,0,0,0-.27.66v0c0,.22-.09.48-.13.75v.09c0,.26,0,.57,0,1v25.39a6.07,6.07,0,0,0,0,.92c0,.31.09.53.13.79v0a2,2,0,0,0,.27.66,3.52,3.52,0,0,0,.39.52c.05.05.05.05.05.09a1.92,1.92,0,0,0,.17.13,1.52,1.52,0,0,0,.44.31c.05,0,.05.05.09.05a3,3,0,0,0,1.58.39h.09a3.08,3.08,0,0,0,2.81-1.54s0,0,0-.08a4.44,4.44,0,0,0,.4-1.85V75a4.41,4.41,0,0,0-.4-1.85c.05,0,0-.09,0-.09"/><path class="cls-2" d="M374.13,98.33a2.9,2.9,0,0,1,.92-2.15l17.66-17.66V76.9a3.08,3.08,0,1,1,6.15,0v2.9A3,3,0,0,1,398,82L379.4,100.53a3.1,3.1,0,0,1-4.35,0,3.06,3.06,0,0,1-.92-2.2"/></g></svg>